<?xml version="1.0" encoding="UTF-8" standalone="no"?>
<!-- Created with Inkscape (http://www.inkscape.org/) -->
<svg
   xmlns:svg="http://www.w3.org/2000/svg"
   xmlns="http://www.w3.org/2000/svg"
   version="1.0"
   width="515"
   height="100"
   id="svg2"
   xml:space="preserve"><defs
     id="defs5" /><g
     transform="matrix(1.25,0,0,-1.25,-206.78124,176.28626)"
     id="g11"><path
       d="M 167.47907,138.88291 L 185.87449,138.88291 L 185.87449,114.20366 L 200.17782,114.20366 L 200.17782,139.03917 L 218.41277,139.03917 L 218.41277,79.308949 L 200.17782,79.308949 L 200.17782,106.65715 L 185.71402,106.65715 L 185.71402,79.621451 L 167.47907,79.621451 L 167.47907,138.88291"
       id="path269"
       style="fill:#cf002a;fill-opacity:1;fill-rule:evenodd;stroke:none" /><path
       d="M 167.47907,138.88291 L 185.87449,138.88291 L 185.87449,114.20366 L 200.17782,114.20366 L 200.17782,139.03917 L 218.41277,139.03917 L 218.41277,79.308949 L 200.17782,79.308949 L 200.17782,106.65715 L 185.71402,106.65715 L 185.71402,79.621451 L 167.47907,79.621451 L 167.47907,138.88291 z"
       id="path271"
       style="fill:none;stroke:#cf002a;stroke-width:0.91216958;stroke-linecap:butt;stroke-linejoin:miter;stroke-miterlimit:2.61299992;stroke-dasharray:none;stroke-opacity:1" /><path
       d="M 253.57352,114.3219 C 254.09718,113.00433 254.61661,110.47474 254.65461,107.11745 C 254.71796,101.24325 254.72641,94.313294 254.59972,92.864802 C 254.35478,90.08184 253.38349,86.06576 251.02283,84.08517 C 248.66217,82.100357 245.79475,82.923843 244.00419,85.618122 C 242.20941,88.308177 241.58441,90.850428 241.71532,98.468729 C 241.84623,106.08704 241.44505,111.36158 242.87242,114.48238 C 244.30402,117.60318 245.7863,118.89964 247.14611,119.15725 C 250.0262,119.73158 252.20105,117.79744 253.57352,114.3219 z M 247.47128,124.29665 C 247.47128,124.29665 253.39616,124.63871 258.16393,122.7637 C 262.93171,120.8929 266.5086,118.77718 269.82788,113.07189 C 273.15139,107.36661 273.53568,99.085289 271.19191,92.358041 C 268.84814,85.635014 264.12682,82.324176 260.97223,80.622304 C 257.82609,78.920432 252.88517,78.037824 248.03294,78.037824 C 243.1807,78.037824 236.96444,79.102021 232.79211,82.421305 C 228.61977,85.740589 225.81147,89.39349 224.5319,94.330186 C 223.25656,99.266879 222.4753,108.10141 227.73717,115.08204 C 232.99903,122.06268 239.63338,123.34225 242.69084,123.87012 C 245.41467,124.35999 247.21368,124.29665 247.47128,124.29665"
       id="path273"
       style="fill:#cf002a;fill-opacity:1;fill-rule:evenodd;stroke:none" /><path
       d="M 253.57352,114.3219 C 254.09718,113.00433 254.61661,110.47474 254.65461,107.11745 C 254.71796,101.24325 254.72641,94.313294 254.59972,92.864802 C 254.35478,90.08184 253.38349,86.06576 251.02283,84.08517 C 248.66217,82.100357 245.79475,82.923843 244.00419,85.618122 C 242.20941,88.308177 241.58441,90.850428 241.71532,98.468729 C 241.84623,106.08704 241.44505,111.36158 242.87242,114.48238 C 244.30402,117.60318 245.7863,118.89964 247.14611,119.15725 C 250.0262,119.73158 252.20105,117.79744 253.57352,114.3219 z M 247.47128,124.29665 C 247.47128,124.29665 253.39616,124.63871 258.16393,122.7637 C 262.93171,120.8929 266.5086,118.77718 269.82788,113.07189 C 273.15139,107.36661 273.53568,99.085289 271.19191,92.358041 C 268.84814,85.635014 264.12682,82.324176 260.97223,80.622304 C 257.82609,78.920432 252.88517,78.037824 248.03294,78.037824 C 243.1807,78.037824 236.96444,79.102021 232.79211,82.421305 C 228.61977,85.740589 225.81147,89.39349 224.5319,94.330186 C 223.25656,99.266879 222.4753,108.10141 227.73717,115.08204 C 232.99903,122.06268 239.63338,123.34225 242.69084,123.87012 C 245.41467,124.35999 247.21368,124.29665 247.47128,124.29665 z"
       id="path275"
       style="fill:none;stroke:#cf002a;stroke-width:0.91216958;stroke-linecap:butt;stroke-linejoin:miter;stroke-miterlimit:2.61299992;stroke-dasharray:none;stroke-opacity:1" /><path
       d="M 294.70562,110.70701 L 294.70562,79.566552 L 277.64044,79.574998 L 277.64044,122.8566 L 294.79008,122.8566 L 294.79008,117.03307 C 294.81541,117.00774 297.05783,120.43259 300.5207,122.08801 C 303.98779,123.74343 309.98446,125.28905 316.09937,122.6919 C 322.21429,120.09475 323.21936,114.61751 323.34183,112.53557 L 323.36717,79.574998 L 306.52581,79.574998 L 306.52581,109.70616 C 306.52581,110.74502 306.52581,112.60314 305.15756,114.25011 C 304.19049,115.41144 301.41597,116.11668 299.0891,114.86667 C 296.758,113.62088 294.372,111.0364 294.70562,110.70701"
       id="path277"
       style="fill:#cf002a;fill-opacity:1;fill-rule:evenodd;stroke:none" /><path
       d="M 294.70562,110.70701 L 294.70562,79.566552 L 277.64044,79.574998 L 277.64044,122.8566 L 294.79008,122.8566 L 294.79008,117.03307 C 294.81541,117.00774 297.05783,120.43259 300.5207,122.08801 C 303.98779,123.74343 309.98446,125.28905 316.09937,122.6919 C 322.21429,120.09475 323.21936,114.61751 323.34183,112.53557 L 323.36717,79.574998 L 306.52581,79.574998 L 306.52581,109.70616 C 306.52581,110.74502 306.52581,112.60314 305.15756,114.25011 C 304.19049,115.41144 301.41597,116.11668 299.0891,114.86667 C 296.758,113.62088 294.372,111.0364 294.70562,110.70701 z"
       id="path279"
       style="fill:none;stroke:#cf002a;stroke-width:0.91216958;stroke-linecap:butt;stroke-linejoin:miter;stroke-miterlimit:2.61299992;stroke-dasharray:none;stroke-opacity:1" /><path
       d="M 331.18395,112.56091 C 334.57925,119.39374 343.24064,124.84986 353.90796,124.30932 C 364.57527,123.76877 370.70708,119.87516 374.46978,112.71716 C 377.68771,106.58958 377.2274,98.561639 377.1725,98.561639 L 346.41212,98.650319 L 346.41212,89.836906 C 346.41212,89.836906 346.7204,88.05902 347.41719,87.134181 C 348.10977,86.20512 350.90117,82.61134 359.24161,83.928919 C 368.49422,85.394302 368.23662,91.969525 368.42243,91.969525 L 375.7409,92.003309 C 375.7409,92.003309 375.65222,87.628273 372.61588,84.735513 C 369.57531,81.842753 364.18676,78.86131 358.16052,78.244751 C 352.13007,77.628192 343.60382,77.450826 336.72454,83.181446 C 332.69579,86.534514 330.88412,90.170524 329.69745,93.519368 C 328.23207,97.657916 327.78866,105.72808 331.18395,112.56091 z M 346.38256,104.33449 C 346.38256,104.33449 346.27276,109.98065 346.76263,112.69182 C 347.24405,115.39877 348.74744,117.61585 350.08191,118.57869 C 351.69088,119.74424 354.94682,119.91739 356.7247,118.10149 C 358.50681,116.2856 358.88266,114.77799 359.12337,113.99251 C 359.36408,113.20281 359.8455,110.669 359.8075,108.24077 C 359.77371,105.80832 359.77371,104.43584 359.8075,104.33449 L 346.38256,104.33449"
       id="path281"
       style="fill:#cf002a;fill-opacity:1;fill-rule:evenodd;stroke:none" /><path
       d="M 331.18395,112.56091 C 334.57925,119.39374 343.24064,124.84986 353.90796,124.30932 C 364.57527,123.76877 370.70708,119.87516 374.46978,112.71716 C 377.68771,106.58958 377.2274,98.561639 377.1725,98.561639 L 346.41212,98.650319 L 346.41212,89.836906 C 346.41212,89.836906 346.7204,88.05902 347.41719,87.134181 C 348.10977,86.20512 350.90117,82.61134 359.24161,83.928919 C 368.49422,85.394302 368.23662,91.969525 368.42243,91.969525 L 375.7409,92.003309 C 375.7409,92.003309 375.65222,87.628273 372.61588,84.735513 C 369.57531,81.842753 364.18676,78.86131 358.16052,78.244751 C 352.13007,77.628192 343.60382,77.450826 336.72454,83.181446 C 332.69579,86.534514 330.88412,90.170524 329.69745,93.519368 C 328.23207,97.657916 327.78866,105.72808 331.18395,112.56091 z M 346.38256,104.33449 C 346.38256,104.33449 346.27276,109.98065 346.76263,112.69182 C 347.24405,115.39877 348.74744,117.61585 350.08191,118.57869 C 351.69088,119.74424 354.94682,119.91739 356.7247,118.10149 C 358.50681,116.2856 358.88266,114.77799 359.12337,113.99251 C 359.36408,113.20281 359.8455,110.669 359.8075,108.24077 C 359.77371,105.80832 359.77371,104.43584 359.8075,104.33449 L 346.38256,104.33449 z"
       id="path283"
       style="fill:none;stroke:#cf002a;stroke-width:0.91216958;stroke-linecap:butt;stroke-linejoin:miter;stroke-miterlimit:2.61299992;stroke-dasharray:none;stroke-opacity:1" /><path
       d="M 486.42593,112.56091 C 489.82122,119.39374 498.48683,124.84986 509.15415,124.30932 C 519.81724,123.76877 525.94905,119.87516 529.71175,112.71716 C 532.9339,106.58958 532.43137,98.561639 532.37647,98.561639 L 501.65409,98.650319 L 501.65409,89.836906 C 501.65409,89.836906 501.96237,88.05902 502.65917,87.134181 C 503.35596,86.20512 506.14315,82.61134 514.48359,83.928919 C 523.74042,85.394302 523.48281,92.011755 523.66863,92.011755 L 530.98288,92.003309 C 530.98288,92.003309 530.89419,87.628273 527.85785,84.735513 C 524.81728,81.842753 519.43295,78.86131 513.4025,78.244751 C 507.37204,77.628192 498.84579,77.450826 491.96651,83.181446 C 487.94198,86.534514 486.12609,90.170524 484.93943,93.519368 C 483.47404,97.657916 483.03485,105.72808 486.42593,112.56091 z M 501.62875,104.33449 C 501.62875,104.33449 501.51895,109.98065 502.0046,112.69182 C 502.48602,115.39877 503.99364,117.61585 505.32388,118.57869 C 506.93285,119.74424 510.18879,119.91739 511.9709,118.10149 C 513.74878,116.2856 514.12463,114.77799 514.36534,113.99251 C 514.60605,113.20281 515.08748,110.669 515.05369,108.24077 C 515.01568,105.80832 515.01568,104.43584 515.05369,104.33449 L 501.62875,104.33449"
       id="path285"
       style="fill:#cf002a;fill-opacity:1;fill-rule:evenodd;stroke:none" /><path
       d="M 486.42593,112.56091 C 489.82122,119.39374 498.48683,124.84986 509.15415,124.30932 C 519.81724,123.76877 525.94905,119.87516 529.71175,112.71716 C 532.9339,106.58958 532.43137,98.561639 532.37647,98.561639 L 501.65409,98.650319 L 501.65409,89.836906 C 501.65409,89.836906 501.96237,88.05902 502.65917,87.134181 C 503.35596,86.20512 506.14315,82.61134 514.48359,83.928919 C 523.74042,85.394302 523.48281,92.011755 523.66863,92.011755 L 530.98288,92.003309 C 530.98288,92.003309 530.89419,87.628273 527.85785,84.735513 C 524.81728,81.842753 519.43295,78.86131 513.4025,78.244751 C 507.37204,77.628192 498.84579,77.450826 491.96651,83.181446 C 487.94198,86.534514 486.12609,90.170524 484.93943,93.519368 C 483.47404,97.657916 483.03485,105.72808 486.42593,112.56091 z M 501.62875,104.33449 C 501.62875,104.33449 501.51895,109.98065 502.0046,112.69182 C 502.48602,115.39877 503.99364,117.61585 505.32388,118.57869 C 506.93285,119.74424 510.18879,119.91739 511.9709,118.10149 C 513.74878,116.2856 514.12463,114.77799 514.36534,113.99251 C 514.60605,113.20281 515.08748,110.669 515.05369,108.24077 C 515.01568,105.80832 515.01568,104.43584 515.05369,104.33449 L 501.62875,104.33449 z"
       id="path287"
       style="fill:none;stroke:#cf002a;stroke-width:0.91216958;stroke-linecap:butt;stroke-linejoin:miter;stroke-miterlimit:2.61299992;stroke-dasharray:none;stroke-opacity:1" /><path
       d="M 375.68178,122.84393 L 394.27568,122.84393 L 402.21916,102.26944 L 410.70318,122.84393 L 434.11131,122.78481 L 441.63249,98.536299 L 448.24994,122.84393 L 463.16982,122.84393 L 470.51363,98.899479 L 477.07196,122.84393 L 484.77473,122.84393 L 472.86163,79.524322 L 458.84124,79.524322 L 451.01601,104.7948 L 444.09872,79.524322 L 429.71516,79.524322 L 416.89833,121.34054 L 398.90832,77.239675 C 398.90832,77.239675 396.31962,70.018333 393.13125,67.193141 C 389.94288,64.363726 386.45467,62.256445 380.6776,63.282636 C 374.90053,64.304604 372.61588,67.311385 372.19358,70.862934 C 371.77128,74.41026 373.57872,78.143399 377.67082,78.924655 C 381.75869,79.705911 384.40651,78.143399 385.36936,76.154362 C 386.33221,74.169549 386.5138,71.944024 385.97325,70.681345 C 385.43271,69.418666 384.52898,68.633186 384.52898,68.633186 C 384.52898,68.633186 386.81363,68.033519 388.92091,70.259044 C 391.02819,72.484569 392.23175,75.613817 392.5907,76.876497 C 392.95388,78.143399 392.95388,78.561476 392.95388,78.561476 L 375.68178,122.84393"
       id="path289"
       style="fill:#cf002a;fill-opacity:1;fill-rule:evenodd;stroke:none" /><path
       d="M 375.68178,122.84393 L 394.27568,122.84393 L 402.21916,102.26944 L 410.70318,122.84393 L 434.11131,122.78481 L 441.63249,98.536299 L 448.24994,122.84393 L 463.16982,122.84393 L 470.51363,98.899479 L 477.07196,122.84393 L 484.77473,122.84393 L 472.86163,79.524322 L 458.84124,79.524322 L 451.01601,104.7948 L 444.09872,79.524322 L 429.71516,79.524322 L 416.89833,121.34054 L 398.90832,77.239675 C 398.90832,77.239675 396.31962,70.018333 393.13125,67.193141 C 389.94288,64.363726 386.45467,62.256445 380.6776,63.282636 C 374.90053,64.304604 372.61588,67.311385 372.19358,70.862934 C 371.77128,74.41026 373.57872,78.143399 377.67082,78.924655 C 381.75869,79.705911 384.40651,78.143399 385.36936,76.154362 C 386.33221,74.169549 386.5138,71.944024 385.97325,70.681345 C 385.43271,69.418666 384.52898,68.633186 384.52898,68.633186 C 384.52898,68.633186 386.81363,68.033519 388.92091,70.259044 C 391.02819,72.484569 392.23175,75.613817 392.5907,76.876497 C 392.95388,78.143399 392.95388,78.561476 392.95388,78.561476 L 375.68178,122.84393 z"
       id="path291"
       style="fill:none;stroke:#cf002a;stroke-width:0.91216958;stroke-linecap:butt;stroke-linejoin:miter;stroke-miterlimit:2.61299992;stroke-dasharray:none;stroke-opacity:1" /><path
       d="M 537.49053,139.01805 L 553.87157,139.01805 L 553.87157,79.503207 L 537.49053,79.503207 L 537.49053,139.01805 z"
       id="path293"
       style="fill:#cf002a;fill-opacity:1;fill-rule:evenodd;stroke:none" /><path
       d="M 537.49053,139.01805 L 553.87157,139.01805 L 553.87157,79.503207 L 537.49053,79.503207 L 537.49053,139.01805 z"
       id="path295"
       style="fill:none;stroke:#cf002a;stroke-width:0.91216958;stroke-linecap:butt;stroke-linejoin:miter;stroke-miterlimit:2.61299992;stroke-dasharray:none;stroke-opacity:1" /><path
       d="M 558.98986,138.94626 L 575.37091,138.94626 L 575.37091,79.431416 L 558.98986,79.431416 L 558.98986,138.94626 z"
       id="path297"
       style="fill:#cf002a;fill-opacity:1;fill-rule:evenodd;stroke:none" /><path
       d="M 558.98986,138.94626 L 575.37091,138.94626 L 575.37091,79.431416 L 558.98986,79.431416 L 558.98986,138.94626 z"
       id="path299"
       style="fill:none;stroke:#cf002a;stroke-width:0.91216958;stroke-linecap:butt;stroke-linejoin:miter;stroke-miterlimit:2.61299992;stroke-dasharray:none;stroke-opacity:1" /></g></svg>